<svg xmlns="http://www.w3.org/2000/svg" width="980" height="980" viewBox="0 0 980 980" version="1.1"><path d="M 461.768 0.725 C 463.565 0.947, 466.265 0.943, 467.768 0.715 C 469.271 0.486, 467.800 0.304, 464.500 0.310 C 461.200 0.315, 459.971 0.502, 461.768 0.725 M 512.768 0.725 C 514.565 0.947, 517.265 0.943, 518.768 0.715 C 520.271 0.486, 518.800 0.304, 515.500 0.310 C 512.200 0.315, 510.971 0.502, 512.768 0.725 M 282 45.500 C 279.525 46.825, 277.950 47.910, 278.500 47.910 C 279.050 47.910, 281.525 46.825, 284 45.500 C 286.475 44.175, 288.050 43.090, 287.500 43.090 C 286.950 43.090, 284.475 44.175, 282 45.500 M 258.750 57.064 C 255.588 58.696, 253 60.256, 253 60.530 C 253 60.805, 255.700 59.666, 259 58 C 262.300 56.334, 265 54.753, 265 54.486 C 265 53.819, 265.185 53.742, 258.750 57.064 M 717 55.466 C 717 55.741, 719.250 57.106, 722 58.500 C 724.750 59.894, 727 60.809, 727 60.534 C 727 60.259, 724.750 58.894, 722 57.500 C 719.250 56.106, 717 55.191, 717 55.466 M 237.750 69.061 C 234.037 71.288, 231 73.363, 231 73.670 C 231 73.978, 232.012 73.578, 233.250 72.780 C 234.488 71.983, 237.637 70.089, 240.250 68.570 C 244.274 66.232, 245.852 64.981, 244.750 65.005 C 244.613 65.008, 241.463 66.833, 237.750 69.061 M 223.987 77.634 C 218.031 81.579, 214.623 84.526, 219.500 81.514 C 227.689 76.458, 231.037 74, 229.737 74 C 229.592 74, 227.004 75.635, 223.987 77.634 M 201.500 93.080 C 195.567 97.565, 194.769 98.831, 200.332 94.930 C 204.535 91.984, 206.822 89.937, 205.809 90.028 C 205.639 90.043, 203.700 91.417, 201.500 93.080 M 184.666 105.933 C 155.073 129.678, 122.552 162.599, 103.103 188.500 C 97.290 196.242, 99.644 193.549, 114.407 175.567 C 119.855 168.930, 133.130 154.683, 143.907 143.907 C 160.777 127.036, 169.468 119.267, 191.567 101.303 C 193.730 99.544, 195.275 98.091, 195 98.074 C 194.725 98.056, 190.075 101.593, 184.666 105.933 M 789 101.321 C 789 101.571, 792.263 104.394, 796.250 107.596 C 800.237 110.797, 802.937 112.714, 802.250 111.856 C 800.783 110.024, 789 100.656, 789 101.321 M 811 119.546 C 826.011 133.124, 855.887 163.792, 865.573 175.567 C 880.491 193.701, 882.673 196.193, 876.897 188.500 C 874.006 184.650, 868.263 177.450, 864.135 172.500 C 855.236 161.829, 819.263 125.669, 810 118.084 C 803.887 113.078, 803.946 113.165, 811 119.546 M 90.758 204.750 C 85.373 212.247, 82.557 216.633, 84.177 215 C 86.166 212.996, 95.227 200, 94.636 200 C 94.380 200, 92.635 202.137, 90.758 204.750 M 898.554 219.750 C 903.898 227.988, 905.311 230, 905.748 230 C 906.013 230, 905.427 228.762, 904.446 227.250 C 899.102 219.012, 897.689 217, 897.252 217 C 896.987 217, 897.573 218.238, 898.554 219.750 M 78.615 222.500 C 77.727 223.875, 76.272 226.238, 75.381 227.750 L 73.763 230.500 75.774 228.066 C 78.151 225.191, 81.302 220, 80.672 220 C 80.429 220, 79.503 221.125, 78.615 222.500 M 907.216 233 C 908.015 234.375, 909.911 237.637, 911.430 240.250 C 912.948 242.863, 914.398 245, 914.653 245 C 915.330 245, 909.815 235.377, 907.631 232.749 L 905.763 230.500 907.216 233 M 501.339 301.192 C 466.531 335.948, 438.200 364.533, 438.382 364.716 C 439.013 365.346, 441.987 363.788, 441.538 363.061 C 441.290 362.660, 469.116 334.357, 503.374 300.166 C 537.631 265.975, 565.428 238, 565.144 238 C 564.860 238, 536.148 266.436, 501.339 301.192 M 725.425 243.203 C 728.684 246.199, 733.634 251.108, 736.425 254.114 C 739.216 257.119, 740.610 258.435, 739.523 257.039 C 735.717 252.152, 729.457 245.800, 724.500 241.795 C 720.189 238.312, 720.316 238.506, 725.425 243.203 M 57.500 258 C 56.106 260.750, 55.191 263, 55.466 263 C 55.741 263, 57.106 260.750, 58.500 258 C 59.894 255.250, 60.809 253, 60.534 253 C 60.259 253, 58.894 255.250, 57.500 258 M 922 259 C 923.666 262.300, 925.254 265, 925.529 265 C 925.804 265, 924.666 262.300, 923 259 C 921.334 255.700, 919.746 253, 919.471 253 C 919.196 253, 920.334 255.700, 922 259 M 639.250 271.728 C 641.313 271.944, 644.688 271.944, 646.750 271.728 C 648.813 271.513, 647.125 271.336, 643 271.336 C 638.875 271.336, 637.188 271.513, 639.250 271.728 M 932.090 278.500 C 932.090 279.050, 933.175 281.525, 934.500 284 C 935.825 286.475, 936.910 288.050, 936.910 287.500 C 936.910 286.950, 935.825 284.475, 934.500 282 C 933.175 279.525, 932.090 277.950, 932.090 278.500 M 603.349 284.440 C 600.132 286.882, 580.175 306.337, 559 327.673 L 520.500 366.466 561.500 325.903 C 584.050 303.593, 604.188 284.327, 606.250 283.088 C 609.602 281.076, 610.769 280, 609.599 280 C 609.379 280, 606.566 281.998, 603.349 284.440 M 690.023 291.414 C 692.510 294.211, 695.573 297.850, 696.828 299.500 C 698.332 301.476, 698.734 301.724, 698.007 300.225 C 697.399 298.974, 694.337 295.335, 691.201 292.139 C 686.264 287.107, 686.106 287.010, 690.023 291.414 M 708.360 337 C 708.360 342.225, 708.529 344.363, 708.735 341.750 C 708.941 339.137, 708.941 334.863, 708.735 332.250 C 708.529 329.637, 708.360 331.775, 708.360 337 M 473.750 356.732 C 476.087 356.943, 479.913 356.943, 482.250 356.732 C 484.587 356.522, 482.675 356.349, 478 356.349 C 473.325 356.349, 471.413 356.522, 473.750 356.732 M 700.069 368.812 C 697.020 374.830, 689.710 382.472, 627.090 445.102 C 588.816 483.383, 556.150 515.695, 554.500 516.907 C 552.023 518.726, 551.936 518.908, 554 517.949 C 555.375 517.310, 588.258 484.998, 627.073 446.144 C 688.140 385.016, 698.087 374.649, 700.919 369.180 C 702.719 365.703, 704.027 362.694, 703.825 362.492 C 703.623 362.290, 701.933 365.134, 700.069 368.812 M 754.705 392.528 C 753.229 395.538, 752.234 398, 752.494 398 C 753.167 398, 758.211 387.878, 757.762 387.429 C 757.557 387.224, 756.182 389.518, 754.705 392.528 M 745.498 408.250 C 742.003 413.469, 720.737 435.530, 669.582 487 L 598.520 558.500 667.809 489.500 C 705.918 451.550, 739.495 417.350, 742.426 413.500 C 748.195 405.920, 751.488 401, 750.792 401 C 750.550 401, 748.168 404.262, 745.498 408.250 M 528 410.359 C 528 410.622, 529.688 411.880, 531.750 413.154 C 533.813 414.429, 537.975 417.466, 541 419.904 C 544.025 422.341, 545.600 423.307, 544.500 422.049 C 541.797 418.959, 528 409.184, 528 410.359 M 382.945 420.399 C 379.400 423.368, 345.900 456.554, 308.500 494.145 L 240.500 562.493 311.500 491.917 C 350.550 453.101, 384.300 419.930, 386.500 418.204 C 388.700 416.479, 390.250 415.052, 389.945 415.034 C 389.639 415.015, 386.489 417.429, 382.945 420.399 M 553.051 430.500 C 556.622 434.350, 560.341 438.625, 561.316 440 C 563.019 442.404, 563.020 442.376, 561.339 439.268 C 560.377 437.490, 556.658 433.215, 553.074 429.768 L 546.557 423.500 553.051 430.500 M 458.776 451.733 C 461.128 451.945, 464.728 451.942, 466.776 451.727 C 468.824 451.512, 466.900 451.339, 462.500 451.343 C 458.100 451.346, 456.424 451.522, 458.776 451.733 M 0.320 465 C 0.320 468.575, 0.502 470.038, 0.723 468.250 C 0.945 466.462, 0.945 463.538, 0.723 461.750 C 0.502 459.962, 0.320 461.425, 0.320 465 M 979.320 465 C 979.320 468.575, 979.502 470.038, 979.723 468.250 C 979.945 466.462, 979.945 463.538, 979.723 461.750 C 979.502 459.962, 979.320 461.425, 979.320 465 M 422.340 464.896 C 414.880 470.901, 283.386 603.168, 282.060 606 C 281.096 608.058, 281.280 607.970, 283.099 605.500 C 286.136 601.375, 421.769 465.825, 425.500 463.186 C 427.150 462.018, 428.203 461.049, 427.840 461.032 C 427.477 461.014, 425.002 462.753, 422.340 464.896 M 503.500 466.104 C 506.250 468.498, 511.238 473.053, 514.585 476.228 C 517.932 479.402, 520.976 482, 521.350 482 C 522.297 482, 505.173 466.296, 501.500 463.795 C 499.850 462.672, 500.750 463.711, 503.500 466.104 M 558.701 474.508 C 557.162 476.437, 553.562 479.358, 550.701 480.998 C 547.841 482.639, 545.950 483.984, 546.500 483.987 C 549.252 484.002, 559.140 476.404, 561.121 472.750 C 562.574 470.072, 561.782 470.647, 558.701 474.508 M 429 498.106 C 424.654 500.711, 420.153 504.861, 418.810 507.500 C 418.251 508.600, 419.237 507.794, 421.002 505.710 C 422.768 503.625, 426.527 500.592, 429.356 498.969 C 432.185 497.346, 434.050 496.016, 433.500 496.013 C 432.950 496.010, 430.925 496.952, 429 498.106 M 466.735 506.081 C 471.556 510.526, 476.850 515.081, 478.500 516.205 C 480.150 517.328, 479.250 516.289, 476.500 513.896 C 473.750 511.502, 468.762 506.947, 465.415 503.772 C 462.068 500.598, 459.024 498, 458.650 498 C 458.276 498, 461.914 501.637, 466.735 506.081 M 0.320 515 C 0.320 518.575, 0.502 520.038, 0.723 518.250 C 0.945 516.462, 0.945 513.538, 0.723 511.750 C 0.502 509.962, 0.320 511.425, 0.320 515 M 979.320 515 C 979.320 518.575, 979.502 520.038, 979.723 518.250 C 979.945 516.462, 979.945 513.538, 979.723 511.750 C 979.502 509.962, 979.320 511.425, 979.320 515 M 513.776 528.733 C 516.128 528.945, 519.728 528.942, 521.776 528.727 C 523.824 528.512, 521.900 528.339, 517.500 528.343 C 513.100 528.346, 511.424 528.522, 513.776 528.733 M 415.019 533 C 415.018 538.221, 429.601 554.642, 442.383 563.812 C 449.559 568.960, 447.828 567.016, 439.152 560.182 C 428.380 551.697, 420.425 543.112, 417.487 536.801 C 416.130 533.885, 415.019 532.175, 415.019 533 M 224.448 587.102 C 222.481 591.009, 221.035 594.368, 221.234 594.567 C 221.433 594.767, 223.258 591.570, 225.290 587.465 C 227.321 583.359, 228.768 580, 228.504 580 C 228.241 580, 226.416 583.196, 224.448 587.102 M 420.904 651.633 C 399.782 672.781, 380.025 691.954, 377 694.239 C 369.655 699.788, 368.827 700.648, 373 698.392 C 374.925 697.351, 395.175 677.965, 418 655.311 C 453.749 619.831, 459.753 614.265, 461.325 615.153 C 462.329 615.720, 463.343 615.990, 463.579 615.754 C 463.815 615.518, 462.951 614.843, 461.658 614.254 C 459.455 613.250, 456.897 615.596, 420.904 651.633 M 539 616 C 538.175 616.533, 537.949 616.976, 538.497 616.985 C 539.045 616.993, 512.270 644.337, 478.997 677.750 L 418.500 738.500 480.250 677.003 C 514.213 643.180, 542 615.392, 542 615.253 C 542 614.692, 540.412 615.087, 539 616 M 498.250 623.728 C 500.313 623.944, 503.688 623.944, 505.750 623.728 C 507.813 623.513, 506.125 623.336, 502 623.336 C 497.875 623.336, 496.188 623.513, 498.250 623.728 M 271.349 643 C 271.349 647.675, 271.522 649.587, 271.732 647.250 C 271.943 644.913, 271.943 641.087, 271.732 638.750 C 271.522 636.413, 271.349 638.325, 271.349 643 M 211.320 643 C 211.320 646.575, 211.502 648.038, 211.723 646.250 C 211.945 644.462, 211.945 641.538, 211.723 639.750 C 211.502 637.962, 211.320 639.425, 211.320 643 M 281.693 679.226 C 284.122 683.561, 296.833 696.060, 301.085 698.294 C 304.369 700.018, 304.405 700.018, 302.025 698.294 C 294.486 692.829, 288.005 686.654, 284.560 681.652 C 280.248 675.391, 278.913 674.261, 281.693 679.226 M 43.090 692.500 C 43.090 693.050, 44.175 695.525, 45.500 698 C 46.825 700.475, 47.910 702.050, 47.910 701.500 C 47.910 700.950, 46.825 698.475, 45.500 696 C 44.175 693.525, 43.090 691.950, 43.090 692.500 M 934.189 696.549 C 931.176 702.749, 931.512 703.617, 934.615 697.652 C 936.003 694.986, 936.967 692.633, 936.757 692.424 C 936.548 692.215, 935.392 694.071, 934.189 696.549 M 222 693.362 C 222 694.447, 227.968 706, 228.529 706 C 228.804 706, 227.619 703.188, 225.896 699.750 C 222.630 693.234, 222 692.202, 222 693.362 M 229.608 708 C 230.871 710.701, 238.779 721.571, 240.551 723.042 C 241.504 723.833, 240.082 721.554, 237.391 717.979 C 234.701 714.403, 231.692 710.358, 230.704 708.989 C 229.716 707.620, 229.223 707.175, 229.608 708 M 333.750 708.723 C 335.538 708.945, 338.462 708.945, 340.250 708.723 C 342.038 708.502, 340.575 708.320, 337 708.320 C 333.425 708.320, 331.962 708.502, 333.750 708.723 M 56.500 720 C 57.894 722.750, 59.259 725, 59.534 725 C 59.809 725, 58.894 722.750, 57.500 720 C 56.106 717.250, 54.741 715, 54.466 715 C 54.191 715, 55.106 717.250, 56.500 720 M 922.500 720 C 921.106 722.750, 920.191 725, 920.466 725 C 920.741 725, 922.106 722.750, 923.500 720 C 924.894 717.250, 925.809 715, 925.534 715 C 925.259 715, 923.894 717.250, 922.500 720 M 248 731.500 C 251.543 735.075, 254.667 738, 254.942 738 C 255.217 738, 252.543 735.075, 249 731.500 C 245.457 727.925, 242.333 725, 242.058 725 C 241.783 725, 244.457 727.925, 248 731.500 M 67.692 740.001 C 69.237 742.752, 71.341 746.015, 72.369 747.251 L 74.237 749.500 72.784 747 C 71.985 745.625, 70.089 742.362, 68.570 739.750 C 67.052 737.138, 65.602 735, 65.347 735 C 65.093 735, 66.148 737.251, 67.692 740.001 M 75.554 752.750 C 80.898 760.988, 82.311 763, 82.748 763 C 83.013 763, 82.427 761.763, 81.446 760.250 C 76.102 752.012, 74.689 750, 74.252 750 C 73.987 750, 74.573 751.237, 75.554 752.750 M 902.802 753.750 C 897.448 761.900, 896.787 763, 897.252 763 C 897.689 763, 899.102 760.988, 904.446 752.750 C 905.427 751.237, 906.013 750, 905.748 750 C 905.483 750, 904.157 751.688, 902.802 753.750 M 888.288 775.250 C 883.951 780.917, 881.665 784.299, 882.521 783.782 C 883.703 783.068, 890.343 774, 889.685 774 C 889.443 774, 888.814 774.563, 888.288 775.250 M 103.103 791.500 C 116.266 809.029, 142.783 837.593, 161.456 854.357 C 165.832 858.286, 159.250 851.375, 146.830 839 C 134.409 826.625, 119.804 811.070, 114.373 804.433 C 99.861 786.697, 97.226 783.673, 103.103 791.500 M 875.968 791.635 C 873.100 795.284, 871.248 797.965, 871.852 797.591 C 873.156 796.785, 882.327 785, 881.650 785 C 881.393 785, 878.836 787.986, 875.968 791.635 M 865.371 804.709 C 862.692 807.849, 861.022 810.098, 861.659 809.706 C 863.057 808.848, 871.386 799, 870.715 799 C 870.455 799, 868.051 801.569, 865.371 804.709 M 835.644 836.364 C 821.973 850.189, 812.748 859.708, 815.144 857.518 C 828.786 845.046, 862.840 810.478, 860.856 811.114 C 860.660 811.177, 849.315 822.540, 835.644 836.364 M 170.294 861.659 C 171.152 863.057, 181 871.386, 181 870.715 C 181 870.455, 178.431 868.051, 175.291 865.371 C 172.151 862.692, 169.902 861.022, 170.294 861.659 M 804 866.143 L 798.500 871.222 803.747 867.020 C 808.349 863.336, 810.782 860.932, 809.809 861.032 C 809.639 861.049, 807.025 863.349, 804 866.143 M 182.409 871.852 C 183.215 873.156, 195 882.327, 195 881.650 C 195 881.393, 192.014 878.836, 188.365 875.968 C 184.716 873.100, 182.035 871.248, 182.409 871.852 M 792.234 875.385 C 784.501 881.622, 783.528 883.058, 790.706 877.637 C 795.928 873.694, 799.067 870.790, 797.809 871.068 C 797.639 871.106, 795.130 873.048, 792.234 875.385 M 196.243 882.583 C 196.569 883.111, 198.976 885.080, 201.593 886.959 C 204.209 888.838, 206.084 889.944, 205.757 889.417 C 205.431 888.889, 203.024 886.920, 200.407 885.041 C 197.791 883.162, 195.916 882.056, 196.243 882.583 M 217 897.252 C 217 897.689, 219.012 899.102, 227.250 904.446 C 228.762 905.427, 230 906.013, 230 905.748 C 230 905.311, 227.988 903.898, 219.750 898.554 C 218.238 897.573, 217 896.987, 217 897.252 M 742.227 909.892 C 734.321 914.707, 732.811 916.239, 739.751 912.403 C 744.827 909.597, 750.025 906.031, 749 906.058 C 748.725 906.065, 745.677 907.790, 742.227 909.892 M 255 920.466 C 255 920.741, 257.250 922.106, 260 923.500 C 262.750 924.894, 265 925.809, 265 925.534 C 265 925.259, 262.750 923.894, 260 922.500 C 257.250 921.106, 255 920.191, 255 920.466 M 282 934.500 C 284.475 935.825, 286.950 936.910, 287.500 936.910 C 288.050 936.910, 286.475 935.825, 284 934.500 C 281.525 933.175, 279.050 932.090, 278.500 932.090 C 277.950 932.090, 279.525 933.175, 282 934.500 M 461.750 979.723 C 463.538 979.945, 466.462 979.945, 468.250 979.723 C 470.038 979.502, 468.575 979.320, 465 979.320 C 461.425 979.320, 459.962 979.502, 461.750 979.723 M 511.750 979.723 C 513.538 979.945, 516.462 979.945, 518.250 979.723 C 520.038 979.502, 518.575 979.320, 515 979.320 C 511.425 979.320, 509.962 979.502, 511.750 979.723" stroke="none" fill="#cfcfcf" fill-rule="evenodd"/><path d="M 458 1.114 C 301.977 11.432, 160.519 95.369, 76.288 227.612 C -16.027 372.546, -24.958 558.354, 53.032 711.472 C 77.299 759.116, 105.264 797.463, 143.907 836.081 C 174.419 866.575, 201.703 888.103, 236.824 909.394 C 348.052 976.826, 483.652 996.957, 610.500 964.870 C 783.912 921.004, 920.435 784.671, 964.594 611.267 C 972.226 581.297, 977.415 548.505, 978.672 522.307 C 979.025 514.946, 979.693 508.690, 980.157 508.403 C 980.621 508.116, 981 499.332, 981 488.882 C 981 478.432, 980.619 470.117, 980.153 470.405 C 979.688 470.693, 979.019 464.939, 978.668 457.620 C 976.980 422.415, 968.114 375.860, 955.984 338.500 C 924.228 240.692, 861.030 153.987, 777 92.943 C 685.657 26.585, 571.174 -6.370, 458 1.114 M 620.922 213.552 C 603.817 216.649, 586.390 223.874, 571.203 234.165 C 565.536 238.004, 546.920 255.906, 500.779 301.888 C 466.282 336.264, 438.174 364.507, 438.315 364.649 C 438.457 364.791, 441.537 363.831, 445.160 362.516 C 465.962 354.965, 492.924 355.305, 513.091 363.373 C 516.702 364.818, 520.050 366, 520.530 366 C 521.011 366, 539.876 347.656, 562.452 325.237 C 606.144 281.848, 609.229 279.281, 623 274.861 C 632.277 271.883, 647.562 271.257, 657.422 273.450 C 676.662 277.731, 692.893 290.540, 701.315 308.089 C 706.697 319.304, 708.005 325.030, 707.985 337.299 C 707.966 349.016, 706.020 357.191, 700.824 367.386 C 696.815 375.250, 694.514 377.673, 626.094 446.075 C 550.610 521.540, 552.712 519.668, 537.275 525.136 C 529.084 528.037, 511.829 528.758, 502.600 526.584 C 489.572 523.516, 480.842 518.254, 466.214 504.654 C 457.649 496.692, 452.721 494.492, 443.532 494.527 C 431.977 494.572, 422.135 500.552, 416.967 510.670 C 414.885 514.747, 414.500 516.904, 414.500 524.500 C 414.500 532.600, 414.796 534.034, 417.456 538.836 C 419.123 541.846, 424.092 547.656, 428.856 552.166 C 454.286 576.237, 483.220 588, 517 588 C 543.272 588, 565.679 581.227, 588 566.538 C 593.706 562.783, 612.215 544.963, 665.366 492.051 C 703.793 453.798, 737.870 419.221, 741.094 415.212 C 766.616 383.481, 774.895 340, 762.969 300.329 C 749.515 255.577, 710.935 221.625, 664.290 213.491 C 653.717 211.648, 631.265 211.679, 620.922 213.552 M 440.686 393.633 C 430.047 395.560, 416.037 400.180, 407 404.741 C 389.500 413.574, 387.705 415.192, 313.672 488.943 C 269.933 532.514, 240.446 562.673, 236.575 567.796 C 225.221 582.820, 217.914 599.070, 213.881 618.266 C 210.857 632.659, 210.879 653.443, 213.934 668 C 224.598 718.805, 264.657 757.606, 315.622 766.493 C 326.699 768.425, 347.301 768.425, 358.378 766.493 C 369.639 764.530, 383.620 759.993, 393 755.259 C 410.303 746.526, 412.747 744.340, 478.725 678.607 C 513.498 643.962, 541.832 615.498, 541.688 615.355 C 541.544 615.211, 538.366 616.204, 534.626 617.562 C 513.394 625.269, 484.538 624.468, 464.782 615.625 L 459.500 613.260 418 654.380 C 374.336 697.644, 371.880 699.703, 357.835 704.807 C 351.248 707.201, 349.122 707.473, 337 707.473 C 324.878 707.473, 322.752 707.201, 316.165 704.807 C 305.910 701.080, 298.765 696.565, 291.095 688.965 C 283.717 681.654, 278.964 674.247, 275.230 664.242 C 273.256 658.953, 272.612 655.016, 272.241 645.974 C 271.676 632.173, 273.062 625.529, 279.120 613 L 283.229 604.500 353.865 533.865 L 424.500 463.229 433 459.125 C 444.110 453.760, 451.414 451.997, 462.460 452.015 C 482.512 452.048, 494.672 457.575, 513.786 475.346 C 522.351 483.308, 527.279 485.508, 536.468 485.473 C 548.023 485.428, 557.865 479.448, 563.033 469.330 C 565.115 465.253, 565.500 463.096, 565.500 455.500 C 565.500 447.383, 565.207 445.972, 562.519 441.118 C 560.742 437.909, 555.897 432.326, 550.519 427.289 C 531.012 409.020, 508.135 397.463, 483.597 393.484 C 472.366 391.662, 451.161 391.736, 440.686 393.633 M 0.419 490 C 0.419 500.725, 0.566 505.113, 0.746 499.750 C 0.925 494.387, 0.925 485.613, 0.746 480.250 C 0.566 474.887, 0.419 479.275, 0.419 490" stroke="none" fill="#040404" fill-rule="evenodd"/></svg>