<?xml version="1.0" encoding="UTF-8"?>
<!DOCTYPE svg PUBLIC "-//W3C//DTD SVG 1.1//EN" "http://www.w3.org/Graphics/SVG/1.1/DTD/svg11.dtd">
<svg xmlns="http://www.w3.org/2000/svg" version="1.1" width="811px" height="785px" style="shape-rendering:geometricPrecision; text-rendering:geometricPrecision; image-rendering:optimizeQuality; fill-rule:evenodd; clip-rule:evenodd" xmlns:xlink="http://www.w3.org/1999/xlink">
<g><path style="opacity:1" fill="#b15628" d="M -0.5,-0.5 C 269.833,-0.5 540.167,-0.5 810.5,-0.5C 810.5,261.167 810.5,522.833 810.5,784.5C 540.167,784.5 269.833,784.5 -0.5,784.5C -0.5,522.833 -0.5,261.167 -0.5,-0.5 Z"/></g>
<g><path style="opacity:1" fill="#4a5964" d="M 373.5,63.5 C 404.941,67.4364 425.775,84.4364 436,114.5C 457.646,225.895 479.479,337.229 501.5,448.5C 500.903,448.735 500.57,449.235 500.5,450C 503.877,463.438 506.877,476.938 509.5,490.5C 513.911,514.887 518.577,539.22 523.5,563.5C 525.385,575.356 527.719,587.023 530.5,598.5C 534.454,620.938 538.788,643.271 543.5,665.5C 545.204,677.744 547.537,689.744 550.5,701.5C 550.5,703.167 550.5,704.833 550.5,706.5C 470.167,706.5 389.833,706.5 309.5,706.5C 309.5,694.833 309.5,683.167 309.5,671.5C 309.5,647.5 309.5,623.5 309.5,599.5C 309.5,587.5 309.5,575.5 309.5,563.5C 309.5,539.5 309.5,515.5 309.5,491.5C 309.5,479.833 309.5,468.167 309.5,456.5C 309.5,432.5 309.5,408.5 309.5,384.5C 309.5,372.5 309.5,360.5 309.5,348.5C 309.5,324.833 309.5,301.167 309.5,277.5C 309.5,265.5 309.5,253.5 309.5,241.5C 309.5,217.5 309.5,193.5 309.5,169.5C 309.5,157.833 309.5,146.167 309.5,134.5C 310.498,111.006 310.831,87.3392 310.5,63.5C 331.5,63.5 352.5,63.5 373.5,63.5 Z"/></g>
<g><path style="opacity:1" fill="#67574c" d="M 373.5,63.5 C 352.5,63.5 331.5,63.5 310.5,63.5C 310.831,87.3392 310.498,111.006 309.5,134.5C 307.585,134.784 305.919,134.451 304.5,133.5C 306.167,133.5 307.833,133.5 309.5,133.5C 309.5,109.833 309.5,86.1667 309.5,62.5C 331.007,62.1694 352.34,62.5027 373.5,63.5 Z"/></g>
<g><path style="opacity:1" fill="#5572a3" d="M 168.5,110.5 C 166.783,107.155 166.116,103.489 166.5,99.5C 154.833,99.5 143.167,99.5 131.5,99.5C 131.768,101.099 131.434,102.432 130.5,103.5C 130.5,101.833 130.5,100.167 130.5,98.5C 142.833,98.5 155.167,98.5 167.5,98.5C 167.505,102.534 167.838,106.534 168.5,110.5 Z"/></g>
<g><path style="opacity:1" fill="#4e75ac" d="M 238.5,99.5 C 250.322,98.5049 262.322,98.1716 274.5,98.5C 274.5,100.167 274.5,101.833 274.5,103.5C 273.566,102.432 273.232,101.099 273.5,99.5C 261.833,99.5 250.167,99.5 238.5,99.5 Z"/></g>
<g><path style="opacity:1" fill="#3873ca" d="M 168.5,110.5 C 180.186,133.452 197.853,139.619 221.5,129C 231.723,121.872 237.389,112.039 238.5,99.5C 250.167,99.5 261.833,99.5 273.5,99.5C 273.232,101.099 273.566,102.432 274.5,103.5C 277.575,120.575 287.575,130.575 304.5,133.5C 305.919,134.451 307.585,134.784 309.5,134.5C 309.5,146.167 309.5,157.833 309.5,169.5C 288.226,169.362 270.56,161.362 256.5,145.5C 229.169,172.889 198.502,177.389 164.5,159C 158.727,155.064 153.394,150.564 148.5,145.5C 134.695,161.901 117.028,169.901 95.5,169.5C 95.5,157.833 95.5,146.167 95.5,134.5C 115.013,132.985 126.68,122.652 130.5,103.5C 131.434,102.432 131.768,101.099 131.5,99.5C 143.167,99.5 154.833,99.5 166.5,99.5C 166.116,103.489 166.783,107.155 168.5,110.5 Z"/></g>
<g><path style="opacity:1" fill="#93d1f4" d="M 309.5,169.5 C 309.5,193.5 309.5,217.5 309.5,241.5C 294.546,240.936 283.713,233.936 277,220.5C 275.208,216 274.375,211.333 274.5,206.5C 262.345,205.505 250.011,205.171 237.5,205.5C 237.5,207.833 237.5,210.167 237.5,212.5C 231.214,233.985 216.881,243.485 194.5,241C 177.659,235.653 168.326,224.153 166.5,206.5C 154.678,205.505 142.678,205.172 130.5,205.5C 130.5,206.833 130.5,208.167 130.5,209.5C 127.147,229.184 115.481,239.85 95.5,241.5C 95.5,217.5 95.5,193.5 95.5,169.5C 117.028,169.901 134.695,161.901 148.5,145.5C 153.394,150.564 158.727,155.064 164.5,159C 198.502,177.389 229.169,172.889 256.5,145.5C 270.56,161.362 288.226,169.362 309.5,169.5 Z"/></g>
<g><path style="opacity:1" fill="#64a2e3" d="M 166.5,206.5 C 154.833,206.5 143.167,206.5 131.5,206.5C 131.737,207.791 131.404,208.791 130.5,209.5C 130.5,208.167 130.5,206.833 130.5,205.5C 142.678,205.172 154.678,205.505 166.5,206.5 Z"/></g>
<g><path style="opacity:1" fill="#65a4e2" d="M 274.5,206.5 C 262.5,206.5 250.5,206.5 238.5,206.5C 238.795,208.735 238.461,210.735 237.5,212.5C 237.5,210.167 237.5,207.833 237.5,205.5C 250.011,205.171 262.345,205.505 274.5,206.5 Z"/></g>
<g><path style="opacity:1" fill="#3873cb" d="M 166.5,206.5 C 168.326,224.153 177.659,235.653 194.5,241C 216.881,243.485 231.214,233.985 237.5,212.5C 238.461,210.735 238.795,208.735 238.5,206.5C 250.5,206.5 262.5,206.5 274.5,206.5C 274.375,211.333 275.208,216 277,220.5C 283.713,233.936 294.546,240.936 309.5,241.5C 309.5,253.5 309.5,265.5 309.5,277.5C 294.531,276.844 280.864,272.344 268.5,264C 264.322,260.487 260.155,256.987 256,253.5C 229.266,279.866 199.099,284.366 165.5,267C 159.698,262.865 154.198,258.365 149,253.5C 144.879,256.618 141.046,260.118 137.5,264C 125.063,273.114 111.063,277.614 95.5,277.5C 95.5,265.5 95.5,253.5 95.5,241.5C 115.481,239.85 127.147,229.184 130.5,209.5C 131.404,208.791 131.737,207.791 131.5,206.5C 143.167,206.5 154.833,206.5 166.5,206.5 Z"/></g>
<g><path style="opacity:1" fill="#93d1f4" d="M 309.5,277.5 C 309.5,301.167 309.5,324.833 309.5,348.5C 287.596,347.263 275.929,335.596 274.5,313.5C 262.5,313.5 250.5,313.5 238.5,313.5C 236.32,335.348 224.32,347.014 202.5,348.5C 180.698,347.032 168.698,335.366 166.5,313.5C 154.5,313.5 142.5,313.5 130.5,313.5C 129.559,331.278 120.559,342.778 103.5,348C 100.854,348.497 98.1873,348.664 95.5,348.5C 95.5,324.833 95.5,301.167 95.5,277.5C 111.063,277.614 125.063,273.114 137.5,264C 141.046,260.118 144.879,256.618 149,253.5C 154.198,258.365 159.698,262.865 165.5,267C 199.099,284.366 229.266,279.866 256,253.5C 260.155,256.987 264.322,260.487 268.5,264C 280.864,272.344 294.531,276.844 309.5,277.5 Z"/></g>
<g><path style="opacity:1" fill="#3873cb" d="M 309.5,348.5 C 309.5,360.5 309.5,372.5 309.5,384.5C 288.236,384.367 270.57,376.367 256.5,360.5C 236.086,381.94 211.419,389.107 182.5,382C 169.696,377.194 158.53,370.027 149,360.5C 134.74,376.209 116.907,384.209 95.5,384.5C 95.5,372.5 95.5,360.5 95.5,348.5C 98.1873,348.664 100.854,348.497 103.5,348C 120.559,342.778 129.559,331.278 130.5,313.5C 142.5,313.5 154.5,313.5 166.5,313.5C 168.698,335.366 180.698,347.032 202.5,348.5C 224.32,347.014 236.32,335.348 238.5,313.5C 250.5,313.5 262.5,313.5 274.5,313.5C 275.929,335.596 287.596,347.263 309.5,348.5 Z"/></g>
<g><path style="opacity:1" fill="#93d1f4" d="M 309.5,384.5 C 309.5,408.5 309.5,432.5 309.5,456.5C 287.695,454.362 276.029,442.362 274.5,420.5C 262.5,420.5 250.5,420.5 238.5,420.5C 234.88,446.609 219.88,458.442 193.5,456C 176.739,450.072 167.739,438.238 166.5,420.5C 154.5,420.5 142.5,420.5 130.5,420.5C 129.002,442.332 117.335,454.332 95.5,456.5C 95.5,432.5 95.5,408.5 95.5,384.5C 116.907,384.209 134.74,376.209 149,360.5C 158.53,370.027 169.696,377.194 182.5,382C 211.419,389.107 236.086,381.94 256.5,360.5C 270.57,376.367 288.236,384.367 309.5,384.5 Z"/></g>
<g><path style="opacity:1" fill="#516ea1" d="M 597.5,431.5 C 595.825,428.493 595.159,425.16 595.5,421.5C 583.833,421.5 572.167,421.5 560.5,421.5C 560.884,425.489 560.217,429.155 558.5,432.5C 559.162,428.534 559.495,424.534 559.5,420.5C 571.833,420.5 584.167,420.5 596.5,420.5C 596.552,424.198 596.886,427.865 597.5,431.5 Z"/></g>
<g><path style="opacity:1" fill="#4a71a9" d="M 667.5,421.5 C 679.322,420.505 691.322,420.172 703.5,420.5C 703.5,421.5 703.5,422.5 703.5,423.5C 691.751,421.553 679.751,420.886 667.5,421.5 Z"/></g>
<g><path style="opacity:1" fill="#3873cb" d="M 309.5,456.5 C 309.5,468.167 309.5,479.833 309.5,491.5C 288.195,491.344 270.528,483.344 256.5,467.5C 235.875,489.411 210.875,496.577 181.5,489C 168.788,484.612 157.955,477.446 149,467.5C 134.933,483.781 117.1,491.781 95.5,491.5C 95.5,479.833 95.5,468.167 95.5,456.5C 117.335,454.332 129.002,442.332 130.5,420.5C 142.5,420.5 154.5,420.5 166.5,420.5C 167.739,438.238 176.739,450.072 193.5,456C 219.88,458.442 234.88,446.609 238.5,420.5C 250.5,420.5 262.5,420.5 274.5,420.5C 276.029,442.362 287.695,454.362 309.5,456.5 Z"/></g>
<g><path style="opacity:1" fill="#3873ca" d="M 597.5,431.5 C 608.651,455.183 626.317,461.683 650.5,451C 660.939,443.959 666.606,434.125 667.5,421.5C 679.751,420.886 691.751,421.553 703.5,423.5C 705.667,438.839 714,449.339 728.5,455C 731.757,456.043 735.09,456.543 738.5,456.5C 738.5,468.167 738.5,479.833 738.5,491.5C 723.725,491.852 710.391,487.685 698.5,479C 694.018,475.353 689.685,471.519 685.5,467.5C 663.246,491.192 636.58,497.692 605.5,487C 595.016,482.343 585.849,475.843 578,467.5C 559.523,487.826 536.69,495.493 509.5,490.5C 506.877,476.938 503.877,463.438 500.5,450C 500.57,449.235 500.903,448.735 501.5,448.5C 519.629,460.364 536.462,458.697 552,443.5C 554.193,439.77 556.36,436.103 558.5,432.5C 560.217,429.155 560.884,425.489 560.5,421.5C 572.167,421.5 583.833,421.5 595.5,421.5C 595.159,425.16 595.825,428.493 597.5,431.5 Z"/></g>
<g><path style="opacity:1" fill="#93d1f4" d="M 738.5,491.5 C 738.5,515.5 738.5,539.5 738.5,563.5C 717.242,561.575 705.575,549.908 703.5,528.5C 691.5,528.5 679.5,528.5 667.5,528.5C 665.278,550.556 653.111,562.223 631,563.5C 613.549,562.399 602.216,553.399 597,536.5C 596.503,533.854 596.336,531.187 596.5,528.5C 584.167,528.5 571.833,528.5 559.5,528.5C 558.995,545.002 550.995,556.169 535.5,562C 531.582,563.156 527.582,563.656 523.5,563.5C 518.577,539.22 513.911,514.887 509.5,490.5C 536.69,495.493 559.523,487.826 578,467.5C 585.849,475.843 595.016,482.343 605.5,487C 636.58,497.692 663.246,491.192 685.5,467.5C 689.685,471.519 694.018,475.353 698.5,479C 710.391,487.685 723.725,491.852 738.5,491.5 Z"/></g>
<g><path style="opacity:1" fill="#93d1f4" d="M 309.5,491.5 C 309.5,515.5 309.5,539.5 309.5,563.5C 294.57,562.946 283.737,555.946 277,542.5C 275.208,538 274.375,533.333 274.5,528.5C 262.345,527.505 250.011,527.171 237.5,527.5C 237.5,529.167 237.5,530.833 237.5,532.5C 235.227,546.599 227.56,556.433 214.5,562C 187.209,566.864 171.209,555.697 166.5,528.5C 154.678,527.505 142.678,527.172 130.5,527.5C 130.5,528.833 130.5,530.167 130.5,531.5C 127.084,551.251 115.418,561.918 95.5,563.5C 95.5,539.5 95.5,515.5 95.5,491.5C 117.1,491.781 134.933,483.781 149,467.5C 157.955,477.446 168.788,484.612 181.5,489C 210.875,496.577 235.875,489.411 256.5,467.5C 270.528,483.344 288.195,491.344 309.5,491.5 Z"/></g>
<g><path style="opacity:1" fill="#67a7e2" d="M 166.5,528.5 C 154.833,528.5 143.167,528.5 131.5,528.5C 131.737,529.791 131.404,530.791 130.5,531.5C 130.5,530.167 130.5,528.833 130.5,527.5C 142.678,527.172 154.678,527.505 166.5,528.5 Z"/></g>
<g><path style="opacity:1" fill="#69a9e3" d="M 274.5,528.5 C 262.5,528.5 250.5,528.5 238.5,528.5C 238.768,530.099 238.434,531.432 237.5,532.5C 237.5,530.833 237.5,529.167 237.5,527.5C 250.011,527.171 262.345,527.505 274.5,528.5 Z"/></g>
<g><path style="opacity:1" fill="#3873cb" d="M 166.5,528.5 C 171.209,555.697 187.209,566.864 214.5,562C 227.56,556.433 235.227,546.599 237.5,532.5C 238.434,531.432 238.768,530.099 238.5,528.5C 250.5,528.5 262.5,528.5 274.5,528.5C 274.375,533.333 275.208,538 277,542.5C 283.737,555.946 294.57,562.946 309.5,563.5C 309.5,575.5 309.5,587.5 309.5,599.5C 294.327,599.498 280.66,594.998 268.5,586C 264.322,582.487 260.155,578.987 256,575.5C 235.035,597.364 209.869,604.198 180.5,596C 168.397,591.239 157.897,584.072 149,574.5C 135.125,590.974 117.292,599.307 95.5,599.5C 95.5,587.5 95.5,575.5 95.5,563.5C 115.418,561.918 127.084,551.251 130.5,531.5C 131.404,530.791 131.737,529.791 131.5,528.5C 143.167,528.5 154.833,528.5 166.5,528.5 Z"/></g>
<g><path style="opacity:1" fill="#3873cb" d="M 738.5,563.5 C 738.5,575.5 738.5,587.5 738.5,599.5C 724.907,598.803 712.241,594.97 700.5,588C 695.407,583.708 690.24,579.542 685,575.5C 659.841,600.999 631.008,606.166 598.5,591C 591.088,586.259 584.255,580.759 578,574.5C 565.774,589.53 549.94,597.53 530.5,598.5C 527.719,587.023 525.385,575.356 523.5,563.5C 527.582,563.656 531.582,563.156 535.5,562C 550.995,556.169 558.995,545.002 559.5,528.5C 571.833,528.5 584.167,528.5 596.5,528.5C 596.336,531.187 596.503,533.854 597,536.5C 602.216,553.399 613.549,562.399 631,563.5C 653.111,562.223 665.278,550.556 667.5,528.5C 679.5,528.5 691.5,528.5 703.5,528.5C 705.575,549.908 717.242,561.575 738.5,563.5 Z"/></g>
<g><path style="opacity:1" fill="#93d1f4" d="M 309.5,599.5 C 309.5,623.5 309.5,647.5 309.5,671.5C 287.977,669.144 276.311,657.144 274.5,635.5C 262.5,635.5 250.5,635.5 238.5,635.5C 236.228,656.939 224.395,668.939 203,671.5C 181.1,669.433 168.933,657.433 166.5,635.5C 154.5,635.5 142.5,635.5 130.5,635.5C 129.147,657.519 117.481,669.186 95.5,670.5C 95.5,646.833 95.5,623.167 95.5,599.5C 117.292,599.307 135.125,590.974 149,574.5C 157.897,584.072 168.397,591.239 180.5,596C 209.869,604.198 235.035,597.364 256,575.5C 260.155,578.987 264.322,582.487 268.5,586C 280.66,594.998 294.327,599.498 309.5,599.5 Z"/></g>
<g><path style="opacity:1" fill="#93d1f4" d="M 738.5,599.5 C 738.5,623.167 738.5,646.833 738.5,670.5C 720.78,669.629 709.28,660.629 704,643.5C 703.503,640.854 703.336,638.187 703.5,635.5C 691.5,635.5 679.5,635.5 667.5,635.5C 665.23,657.605 653.064,669.271 631,670.5C 609.327,668.993 597.827,657.326 596.5,635.5C 584.5,635.5 572.5,635.5 560.5,635.5C 559.453,648.275 553.786,658.275 543.5,665.5C 538.788,643.271 534.454,620.938 530.5,598.5C 549.94,597.53 565.774,589.53 578,574.5C 584.255,580.759 591.088,586.259 598.5,591C 631.008,606.166 659.841,600.999 685,575.5C 690.24,579.542 695.407,583.708 700.5,588C 712.241,594.97 724.907,598.803 738.5,599.5 Z"/></g>
<g><path style="opacity:1" fill="#3873ca" d="M 309.5,671.5 C 309.5,683.167 309.5,694.833 309.5,706.5C 306.167,706.5 302.833,706.5 299.5,706.5C 282.793,702.975 268.459,694.975 256.5,682.5C 244.3,695.262 229.634,703.262 212.5,706.5C 205.833,706.5 199.167,706.5 192.5,706.5C 175.633,702.816 161.133,694.816 149,682.5C 137.146,695.343 122.646,703.343 105.5,706.5C 102.167,706.5 98.8333,706.5 95.5,706.5C 95.5,694.5 95.5,682.5 95.5,670.5C 117.481,669.186 129.147,657.519 130.5,635.5C 142.5,635.5 154.5,635.5 166.5,635.5C 168.933,657.433 181.1,669.433 203,671.5C 224.395,668.939 236.228,656.939 238.5,635.5C 250.5,635.5 262.5,635.5 274.5,635.5C 276.311,657.144 287.977,669.144 309.5,671.5 Z"/></g>
<g><path style="opacity:1" fill="#3873ca" d="M 738.5,670.5 C 738.5,682.5 738.5,694.5 738.5,706.5C 735.167,706.5 731.833,706.5 728.5,706.5C 711.796,702.976 697.463,694.976 685.5,682.5C 673.358,695.349 658.691,703.349 641.5,706.5C 634.833,706.5 628.167,706.5 621.5,706.5C 604.704,702.848 590.204,694.848 578,682.5C 570.606,691.394 561.439,697.727 550.5,701.5C 547.537,689.744 545.204,677.744 543.5,665.5C 553.786,658.275 559.453,648.275 560.5,635.5C 572.5,635.5 584.5,635.5 596.5,635.5C 597.827,657.326 609.327,668.993 631,670.5C 653.064,669.271 665.23,657.605 667.5,635.5C 679.5,635.5 691.5,635.5 703.5,635.5C 703.336,638.187 703.503,640.854 704,643.5C 709.28,660.629 720.78,669.629 738.5,670.5 Z"/></g>
<g><path style="opacity:1" fill="#92cff3" d="M 621.5,706.5 C 597.833,706.5 574.167,706.5 550.5,706.5C 550.5,704.833 550.5,703.167 550.5,701.5C 561.439,697.727 570.606,691.394 578,682.5C 590.204,694.848 604.704,702.848 621.5,706.5 Z"/></g>
<g><path style="opacity:1" fill="#91cff3" d="M 192.5,706.5 C 163.5,706.5 134.5,706.5 105.5,706.5C 122.646,703.343 137.146,695.343 149,682.5C 161.133,694.816 175.633,702.816 192.5,706.5 Z"/></g>
<g><path style="opacity:1" fill="#92cff3" d="M 728.5,706.5 C 699.5,706.5 670.5,706.5 641.5,706.5C 658.691,703.349 673.358,695.349 685.5,682.5C 697.463,694.976 711.796,702.976 728.5,706.5 Z"/></g>
<g><path style="opacity:1" fill="#92cff3" d="M 299.5,706.5 C 270.5,706.5 241.5,706.5 212.5,706.5C 229.634,703.262 244.3,695.262 256.5,682.5C 268.459,694.975 282.793,702.975 299.5,706.5 Z"/></g>
</svg>
